<svg width="57" height="57" viewBox="0 0 57 57" fill="none" xmlns="http://www.w3.org/2000/svg">
<path fill-rule="evenodd" clip-rule="evenodd" d="M0 28.4375C0 12.7319 12.7319 0 28.4375 0C44.1431 0 56.875 12.7319 56.875 28.4375C56.875 44.1431 44.1431 56.875 28.4375 56.875C12.7319 56.875 0 44.1431 0 28.4375ZM38.9675 23.1465C39.6698 22.1634 39.4421 20.7972 38.459 20.095C37.4759 19.3927 36.1097 19.6205 35.4075 20.6035L25.9709 33.8148L21.2343 29.0782C20.38 28.2239 18.995 28.2239 18.1407 29.0782C17.2864 29.9325 17.2864 31.3175 18.1407 32.1718L24.7032 38.7343C25.1579 39.189 25.7896 39.4206 26.4304 39.3675C27.0713 39.3145 27.6563 38.9822 28.03 38.459L38.9675 23.1465Z" fill="#31C48D"/>
</svg>
