<svg width="30" height="30" viewBox="0 0 30 30" fill="none" xmlns="http://www.w3.org/2000/svg">
<path d="M20.4375 5.125C22.8537 5.125 24.8125 7.08375 24.8125 9.5M29.1875 9.5C29.1875 14.3325 25.27 18.25 20.4375 18.25C19.926 18.25 19.4247 18.2061 18.9373 18.1219C18.1162 17.98 17.2467 18.1596 16.6575 18.7487L12.7812 22.625H9.5V25.9062H6.21875V29.1875H0.75V25.0779C0.75 24.2076 1.0957 23.373 1.71106 22.7577L11.1888 13.28C11.7779 12.6908 11.9575 11.8213 11.8156 11.0002C11.7314 10.5128 11.6875 10.0115 11.6875 9.5C11.6875 4.66751 15.605 0.75 20.4375 0.75C25.27 0.75 29.1875 4.66751 29.1875 9.5Z" stroke="#AFAFAF" stroke-width="1.5" stroke-linecap="round" stroke-linejoin="round"/>
</svg>
