<svg width="30" height="24" viewBox="0 0 30 24" fill="none" xmlns="http://www.w3.org/2000/svg">
<path d="M29.1875 4.03125V19.3438C29.1875 21.1559 27.7184 22.625 25.9062 22.625H4.03125C2.21907 22.625 0.75 21.1559 0.75 19.3438V4.03125M29.1875 4.03125C29.1875 2.21907 27.7184 0.75 25.9062 0.75H4.03125C2.21907 0.75 0.75 2.21907 0.75 4.03125M29.1875 4.03125V4.3852C29.1875 5.52465 28.5964 6.58252 27.6259 7.17971L16.6884 13.9105C15.6338 14.5595 14.3037 14.5595 13.2491 13.9105L2.31156 7.17971C1.34113 6.58253 0.75 5.52465 0.75 4.3852V4.03125" stroke="#AFAFAF" stroke-width="1.5" stroke-linecap="round" stroke-linejoin="round"/>
</svg>
